<mxfile host="app.diagrams.net" modified="2024-01-24T21:06:00.739Z" agent="Mozilla/5.0 (Windows NT 10.0; Win64; x64) AppleWebKit/537.36 (KHTML, like Gecko) Chrome/120.0.0.0 Safari/537.36" version="23.0.1" etag="M7r9Vt0iH7GArrrJ-_N9" type="github">
  <diagram name="Page-1" id="PmH8x91g7e7saPufSshL">
    <mxGraphModel>
      <root>
        <mxCell id="0" />
        <mxCell id="1" parent="0" />
      </root>
    </mxGraphModel>
  </diagram>
</mxfile>
